<svg width="141" height="41" viewBox="0 0 141 41" fill="none" xmlns="http://www.w3.org/2000/svg">
<rect x="0.5" y="0.5" width="140" height="40" stroke="white"/>
<path d="M31.113 20.2842C31.0767 16.8736 33.8934 15.2139 34.0206 15.1409C32.4214 12.8064 29.95 12.4963 29.0959 12.4599C27.0242 12.241 25.0071 13.7001 23.9531 13.7001C22.8991 13.7001 21.2454 12.4781 19.5008 12.5146C17.2474 12.5511 15.1394 13.8642 13.9764 15.9069C11.5958 20.0653 13.3767 26.1569 15.6664 29.5128C16.8113 31.1543 18.1561 32.9963 19.9006 32.9234C21.6088 32.8504 22.263 31.8291 24.3165 31.8291C26.37 31.8291 26.9697 32.9234 28.7506 32.8869C30.586 32.8504 31.7491 31.2455 32.8576 29.5675C34.1842 27.689 34.7112 25.8286 34.7293 25.7375C34.693 25.7375 31.1494 24.3696 31.1312 20.2842" fill="white"/>
<path d="M27.7293 10.2444C28.6561 9.09536 29.274 7.50862 29.1104 5.92188C27.7838 5.97659 26.112 6.85204 25.1488 7.98282C24.2947 8.98593 23.5315 10.6092 23.7314 12.1594C25.2215 12.2689 26.7662 11.3934 27.7293 10.2626" fill="white"/>
<path d="M51.826 26.8089L50.6448 23.1247C50.5176 22.7417 50.2814 21.8662 49.9361 20.4619H49.8998C49.7544 21.0638 49.5363 21.9392 49.2274 23.1247L48.0643 26.8089H51.826ZM55.9148 32.6816H53.5161L52.2077 28.5415H47.6464L46.3925 32.6816H44.0664L48.5913 18.6016H51.3899L55.933 32.6816H55.9148Z" fill="white"/>
<path d="M65.2579 27.5574C65.2579 26.5725 65.0399 25.7518 64.5856 25.1134C64.0949 24.4386 63.4407 24.1103 62.6229 24.1103C62.0596 24.1103 61.5689 24.2927 61.1146 24.6574C60.6603 25.0222 60.3695 25.5147 60.2242 26.1165C60.1515 26.3901 60.1151 26.6272 60.1151 26.8096V28.5058C60.1151 29.2535 60.3332 29.8736 60.7875 30.3843C61.2418 30.895 61.8233 31.1503 62.5502 31.1503C63.4043 31.1503 64.0586 30.822 64.531 30.1655C65.0035 29.5089 65.2398 28.6517 65.2398 27.5756M67.5477 27.4844C67.5477 29.2171 67.0752 30.5849 66.1484 31.5881C65.3125 32.4817 64.2766 32.9195 63.0409 32.9195C61.7143 32.9195 60.7512 32.4453 60.1697 31.4786H60.1333V36.8225H57.8799V25.8612C57.8799 24.7669 57.8436 23.6543 57.7891 22.5236H59.7699L59.8971 24.1285H59.9334C60.6785 22.9248 61.8233 22.3047 63.3498 22.3047C64.5492 22.3047 65.5487 22.7789 66.3483 23.7273C67.1479 24.6757 67.5477 25.9159 67.5477 27.4662" fill="white"/>
<path d="M76.9064 27.5574C76.9064 26.5725 76.6883 25.7518 76.234 25.1134C75.7433 24.4386 75.0891 24.1103 74.2714 24.1103C73.708 24.1103 73.2174 24.2927 72.7631 24.6574C72.3087 25.0222 72.018 25.5147 71.8726 26.1165C71.7999 26.3901 71.7636 26.6272 71.7636 26.8096V28.5058C71.7636 29.2535 71.9816 29.8736 72.436 30.3843C72.8903 30.895 73.4718 31.1503 74.1987 31.1503C75.0528 31.1503 75.707 30.822 76.1795 30.1655C76.652 29.5089 76.8882 28.6517 76.8882 27.5756M79.1961 27.4844C79.1961 29.2171 78.7236 30.5849 77.7968 31.5881C76.9609 32.4817 75.9251 32.9195 74.6893 32.9195C73.3627 32.9195 72.3996 32.4453 71.8181 31.4786H71.7817V36.8225H69.5284V25.8612C69.5284 24.7669 69.492 23.6543 69.4375 22.5236H71.4183L71.5455 24.1285H71.5818C72.3269 22.9248 73.4718 22.3047 74.9983 22.3047C76.1977 22.3047 77.179 22.7789 77.9967 23.7273C78.7963 24.6757 79.1961 25.9159 79.1961 27.4662" fill="white"/>
<path d="M92.2085 28.724C92.2085 29.9277 91.7905 30.8944 90.9546 31.6422C90.046 32.4629 88.7739 32.8824 87.1384 32.8824C85.6301 32.8824 84.4125 32.5906 83.5039 32.0069L84.0309 30.1284C85.0122 30.7302 86.1026 31.022 87.2838 31.022C88.1379 31.022 88.7921 30.8214 89.2646 30.4384C89.7371 30.0554 89.9733 29.5447 89.9733 28.9064C89.9733 28.341 89.7734 27.8486 89.3918 27.4656C89.0102 27.0825 88.3559 26.7178 87.4473 26.3712C84.994 25.4593 83.7583 24.1097 83.7583 22.3406C83.7583 21.1733 84.1945 20.2249 85.0486 19.4954C85.9027 18.7476 87.0475 18.3828 88.4832 18.3828C89.7552 18.3828 90.8274 18.6017 91.6633 19.0576L91.1 20.8997C90.3004 20.462 89.41 20.2431 88.4105 20.2431C87.6109 20.2431 86.993 20.4438 86.5569 20.8268C86.1753 21.1733 85.9935 21.5928 85.9935 22.1035C85.9935 22.6506 86.2116 23.1248 86.6296 23.4896C87.0112 23.8179 87.6836 24.1826 88.6649 24.5839C89.8643 25.0763 90.7547 25.6417 91.3362 26.2983C91.8996 26.9549 92.1903 27.7756 92.1903 28.7422" fill="white"/>
<path d="M99.6409 24.2183H97.1695V29.1427C97.1695 30.4011 97.6056 31.0212 98.4779 31.0212C98.8777 31.0212 99.2048 30.9848 99.4774 30.9118L99.5319 32.6262C99.0958 32.7904 98.5142 32.8816 97.7873 32.8816C96.8969 32.8816 96.2063 32.608 95.6975 32.0608C95.2069 31.5137 94.9524 30.6018 94.9524 29.3251V24.2001H93.4805V22.5039H94.9524V20.6436L97.1695 19.9688V22.5039H99.6409V24.2001V24.2183Z" fill="white"/>
<path d="M108.489 27.599C108.489 26.6689 108.29 25.8664 107.89 25.1916C107.417 24.3891 106.745 23.9696 105.873 23.9696C105 23.9696 104.273 24.3708 103.801 25.1916C103.401 25.8664 103.201 26.6871 103.201 27.6355C103.201 28.5839 103.401 29.3682 103.801 30.043C104.292 30.8455 104.964 31.265 105.836 31.265C106.709 31.265 107.363 30.8455 107.853 30.0247C108.271 29.3317 108.471 28.5292 108.471 27.599M110.834 27.5261C110.834 29.0946 110.379 30.3713 109.507 31.3744C108.58 32.414 107.345 32.9247 105.8 32.9247C104.255 32.9247 103.129 32.4322 102.256 31.4473C101.366 30.4625 100.93 29.204 100.93 27.7085C100.93 26.2129 101.384 24.845 102.293 23.8419C103.201 22.8388 104.419 22.3281 105.963 22.3281C107.508 22.3281 108.653 22.8206 109.543 23.8054C110.398 24.7721 110.834 26.0123 110.834 27.5261Z" fill="white"/>
<path d="M118.138 24.5115C117.92 24.4751 117.684 24.4568 117.429 24.4568C116.648 24.4568 116.03 24.7486 115.594 25.3505C115.212 25.8794 115.031 26.5542 115.031 27.3567V32.6824H112.777V25.7153C112.795 24.548 112.777 23.4719 112.723 22.5236H114.685L114.758 24.4568H114.812C115.049 23.782 115.43 23.2531 115.939 22.8518C116.448 22.4871 116.975 22.3047 117.557 22.3047C117.756 22.3047 117.956 22.3047 118.12 22.3412V24.4933L118.138 24.5115Z" fill="white"/>
<path d="M126.063 26.536C126.063 25.8612 125.936 25.2958 125.627 24.8034C125.245 24.1832 124.646 23.855 123.828 23.855C123.101 23.855 122.501 24.165 122.029 24.7669C121.647 25.2593 121.429 25.8429 121.356 26.5178H126.045L126.063 26.536ZM128.207 27.1196C128.207 27.5209 128.171 27.8674 128.117 28.141H121.375C121.393 29.1441 121.72 29.9101 122.356 30.439C122.919 30.9132 123.664 31.1503 124.555 31.1503C125.554 31.1503 126.463 30.9862 127.281 30.6761L127.626 32.2446C126.663 32.6641 125.536 32.8647 124.228 32.8647C122.665 32.8647 121.429 32.4088 120.521 31.4786C119.63 30.5485 119.176 29.3082 119.176 27.758C119.176 26.2077 119.594 24.9493 120.43 23.9279C121.302 22.8336 122.483 22.3047 123.973 22.3047C125.463 22.3047 126.536 22.8518 127.281 23.9279C127.88 24.7851 128.171 25.8612 128.171 27.1196" fill="white"/>
<path d="M49.9208 9.95485C49.9208 9.15236 49.7028 8.53225 49.2848 8.09453C48.8668 7.65681 48.2308 7.45618 47.413 7.45618C47.0678 7.45618 46.777 7.47442 46.5226 7.52914V12.7089C46.6498 12.7271 46.9042 12.7453 47.2677 12.7453C48.1218 12.7453 48.7578 12.5082 49.2303 12.034C49.6846 11.5598 49.9208 10.8668 49.9208 9.97309M51.0839 9.91837C51.0839 11.1586 50.7022 12.107 49.9753 12.7271C49.2848 13.3107 48.3035 13.6025 47.0314 13.6025C46.4135 13.6025 45.8684 13.5661 45.4141 13.5113V6.70841C45.9956 6.61722 46.6316 6.5625 47.3222 6.5625C48.5216 6.5625 49.4483 6.81784 50.048 7.34675C50.7386 7.94862 51.0839 8.78759 51.0839 9.90013" fill="white"/>
<path d="M56.116 11.056C56.116 10.6 56.0251 10.1988 55.8252 9.8705C55.589 9.46925 55.2619 9.26863 54.8257 9.26863C54.3896 9.26863 54.0443 9.46925 53.8081 9.8705C53.6082 10.1988 53.5173 10.6 53.5173 11.0742C53.5173 11.5484 53.6082 11.9314 53.8081 12.2597C54.0443 12.661 54.3896 12.8616 54.8076 12.8616C55.2255 12.8616 55.5526 12.661 55.807 12.2597C56.0069 11.9314 56.116 11.5302 56.116 11.0742M57.2608 11.0195C57.2608 11.7855 57.0428 12.4239 56.6066 12.9163C56.1523 13.427 55.5345 13.6823 54.7894 13.6823C54.0443 13.6823 53.481 13.4452 53.0448 12.9528C52.6087 12.4604 52.3906 11.8585 52.3906 11.1107C52.3906 10.3629 52.6087 9.70635 53.063 9.21391C53.5173 8.72147 54.117 8.48438 54.8621 8.48438C55.6071 8.48438 56.1705 8.72147 56.6248 9.21391C57.0428 9.68811 57.2608 10.29 57.2608 11.0378" fill="white"/>
<path d="M65.5465 8.55469L63.9837 13.552H62.966L62.33 11.3816C62.1664 10.8345 62.0392 10.3056 61.9302 9.77666H61.912C61.8211 10.3238 61.6758 10.871 61.5122 11.3816L60.8217 13.552H59.804L58.332 8.55469H59.4587L60.0221 10.9257C60.1493 11.4911 60.2765 12.02 60.3674 12.5307H60.3855C60.4764 12.1112 60.6036 11.5823 60.8035 10.9439L61.5122 8.55469H62.4208L63.0932 10.8892C63.2568 11.4546 63.384 12.0018 63.493 12.5307H63.5294C63.602 12.02 63.7111 11.4728 63.8746 10.8892L64.4743 8.55469H65.5647H65.5465Z" fill="white"/>
<path d="M71.2715 13.5495H70.163V10.686C70.163 9.81058 69.8359 9.35462 69.1635 9.35462C68.8364 9.35462 68.5638 9.48229 68.364 9.71939C68.1641 9.95649 68.055 10.2483 68.055 10.5766V13.5312H66.9465V9.97473C66.9465 9.53701 66.9465 9.06281 66.9102 8.55213H67.8733L67.9278 9.33638H67.9642C68.0914 9.09928 68.2913 8.89866 68.5457 8.73451C68.8546 8.55213 69.1817 8.46094 69.5452 8.46094C70.0176 8.46094 70.3993 8.60684 70.7082 8.9169C71.0898 9.28167 71.2897 9.84706 71.2897 10.5766V13.5677L71.2715 13.5495Z" fill="white"/>
<path d="M74.3234 6.27344H73.2148V13.5506H74.3234V6.27344Z" fill="white"/>
<path d="M79.6863 11.056C79.6863 10.6 79.5954 10.1988 79.3955 9.8705C79.1593 9.46925 78.8322 9.26863 78.4142 9.26863C77.9963 9.26863 77.6328 9.46925 77.3966 9.8705C77.1967 10.1988 77.1058 10.6 77.1058 11.0742C77.1058 11.5484 77.1967 11.9314 77.3966 12.2597C77.6328 12.661 77.9781 12.8616 78.396 12.8616C78.814 12.8616 79.1411 12.661 79.3955 12.2597C79.5954 11.9314 79.7045 11.5302 79.7045 11.0742M80.8312 11.0195C80.8312 11.7855 80.6131 12.4239 80.1769 12.9163C79.7226 13.427 79.1048 13.6823 78.3597 13.6823C77.6146 13.6823 77.0513 13.4452 76.6151 12.9528C76.179 12.4604 75.9609 11.8585 75.9609 11.1107C75.9609 10.3629 76.179 9.70635 76.6333 9.21391C77.0876 8.72147 77.6873 8.48438 78.4324 8.48438C79.1775 8.48438 79.7408 8.72147 80.1951 9.21391C80.6131 9.68811 80.8312 10.29 80.8312 11.0378" fill="white"/>
<path d="M85.0273 11.8377V11.0716C83.8098 11.0534 83.1919 11.3817 83.1919 12.0748C83.1919 12.3301 83.2646 12.5307 83.41 12.6584C83.5554 12.7861 83.7371 12.859 83.9552 12.859C84.1914 12.859 84.4276 12.7861 84.6275 12.6219C84.8274 12.476 84.9546 12.2754 85.0092 12.0383C85.0092 11.9836 85.0092 11.9106 85.0092 11.8377M86.1904 13.5521H85.1909L85.1 12.9867H85.0637C84.7184 13.4426 84.2459 13.6797 83.6099 13.6797C83.1374 13.6797 82.7558 13.5338 82.4832 13.2238C82.2288 12.9502 82.1016 12.6037 82.1016 12.2024C82.1016 11.6006 82.356 11.1264 82.8648 10.7981C83.3736 10.4698 84.0824 10.3239 85.0092 10.3239V10.2327C85.0092 9.5761 84.6639 9.2478 83.9733 9.2478C83.4827 9.2478 83.0465 9.37547 82.6831 9.61257L82.465 8.88303C82.9193 8.59122 83.5008 8.44531 84.1732 8.44531C85.4816 8.44531 86.1177 9.13837 86.1177 10.5063V12.3483C86.1177 12.8408 86.1358 13.242 86.1904 13.5338" fill="white"/>
<path d="M91.3155 11.448V10.609C91.3155 10.4631 91.3155 10.3536 91.2792 10.2625C91.2247 9.98888 91.0793 9.77002 90.8794 9.58763C90.6795 9.40525 90.4251 9.31406 90.1343 9.31406C89.7164 9.31406 89.4074 9.4782 89.153 9.80649C88.9168 10.1348 88.8077 10.5543 88.8077 11.0649C88.8077 11.5756 88.9168 11.9586 89.153 12.2687C89.3893 12.597 89.7164 12.7611 90.1162 12.7611C90.4796 12.7611 90.7704 12.6335 90.9884 12.3416C91.2065 12.0863 91.2974 11.7762 91.2974 11.4297M92.4604 13.5454H91.4791L91.4246 12.7429H91.3882C91.0793 13.3447 90.5341 13.6548 89.7891 13.6548C89.1894 13.6548 88.6987 13.4177 88.2989 12.9435C87.8991 12.4693 87.6992 11.8492 87.6992 11.1014C87.6992 10.2989 87.9173 9.64235 88.3534 9.13167C88.7714 8.67571 89.2802 8.43861 89.8799 8.43861C90.5523 8.43861 91.0066 8.65747 91.2792 9.11343H91.2974V6.25H92.4059V12.1775C92.4059 12.6699 92.4059 13.1077 92.4422 13.5271" fill="white"/>
<path d="M100.784 11.056C100.784 10.6 100.675 10.1988 100.493 9.8705C100.257 9.46925 99.9298 9.26863 99.4937 9.26863C99.0576 9.26863 98.7123 9.46925 98.476 9.8705C98.2761 10.1988 98.1853 10.6 98.1853 11.0742C98.1853 11.5484 98.2761 11.9314 98.476 12.2597C98.7123 12.661 99.0576 12.8616 99.4755 12.8616C99.8935 12.8616 100.221 12.661 100.475 12.2597C100.675 11.9314 100.784 11.5302 100.784 11.0742M101.929 11.0195C101.929 11.7855 101.711 12.4239 101.275 12.9163C100.82 13.427 100.202 13.6823 99.4574 13.6823C98.7123 13.6823 98.1489 13.4452 97.7128 12.9528C97.2767 12.4604 97.0586 11.8585 97.0586 11.1107C97.0586 10.3629 97.2767 9.70635 97.731 9.21391C98.1853 8.72147 98.785 8.48438 99.53 8.48438C100.275 8.48438 100.838 8.72147 101.293 9.21391C101.711 9.68811 101.929 10.29 101.929 11.0378" fill="white"/>
<path d="M107.873 13.5495H106.765V10.686C106.765 9.81058 106.437 9.35462 105.765 9.35462C105.438 9.35462 105.165 9.48229 104.966 9.71939C104.766 9.95649 104.657 10.2483 104.657 10.5766V13.5312H103.548V9.97473C103.548 9.53701 103.548 9.06281 103.512 8.55213H104.475L104.529 9.33638H104.566C104.693 9.09928 104.893 8.89866 105.147 8.73451C105.456 8.55213 105.783 8.46094 106.147 8.46094C106.601 8.46094 107.001 8.60684 107.31 8.9169C107.691 9.28167 107.891 9.84706 107.891 10.5766V13.5677L107.873 13.5495Z" fill="white"/>
<path d="M115.306 9.39168H114.088V11.8174C114.088 12.4375 114.306 12.7476 114.724 12.7476C114.924 12.7476 115.088 12.7476 115.215 12.6928L115.251 13.5318C115.033 13.623 114.742 13.6595 114.397 13.6595C113.961 13.6595 113.616 13.5318 113.379 13.2582C113.125 12.9847 113.016 12.5469 113.016 11.9086V9.39168H112.289V8.55271H113.016V7.64079L114.106 7.3125V8.55271H115.324V9.39168H115.306Z" fill="white"/>
<path d="M121.157 13.5506H120.049V10.7054C120.049 9.81169 119.721 9.35573 119.049 9.35573C118.54 9.35573 118.195 9.61107 117.995 10.14C117.959 10.2494 117.941 10.3771 117.941 10.5412V13.5506H116.832V6.27344H117.941V9.28278H117.959C118.304 8.73563 118.813 8.46205 119.449 8.46205C119.903 8.46205 120.285 8.60796 120.576 8.91801C120.957 9.30102 121.139 9.84817 121.139 10.5959V13.5688L121.157 13.5506Z" fill="white"/>
</svg>
