<svg width="354" height="119" viewBox="0 0 354 119" fill="none" xmlns="http://www.w3.org/2000/svg">
<path d="M342.267 115.686C347.298 115.686 352.32 111.725 353.668 106.694C355.016 101.663 352.115 97.7013 347.084 97.7013C342.053 97.7013 337.031 101.663 335.683 106.694C334.335 111.725 337.236 115.686 342.267 115.686ZM327.889 94.4994C329.113 89.9272 328.022 87.1839 325.52 80.0203L321.066 67.0663C319.043 60.9691 318.841 59.4441 319.699 56.245C321.086 51.0622 326.336 47.4045 330.908 47.4045C336.699 47.4045 340.252 51.2141 343.812 56.7008H344.116C346.558 54.4161 348.319 51.8247 348.972 49.3853C350.114 45.117 348.781 41.0034 340.244 41.0034C330.948 41.0034 311.415 50.7583 308.227 62.646C307.004 67.2182 307.884 69.0471 310.881 78.3462L314.384 89.1675C315.76 93.1292 317.33 96.9417 316.269 100.903C315.042 105.475 310.588 109.592 305.253 109.592C298.394 109.592 292.893 103.953 290.189 97.5522H290.037C288.38 98.6186 285.499 101.972 284.643 105.172C283.225 109.896 286.509 115.841 296.722 115.841C309.831 115.841 325.526 103.343 327.895 94.5022M217.344 104.102C213.514 111.57 217.746 115.686 223.384 115.686C238.17 115.686 255.063 95.8725 268.822 78.6501H269.433L254.225 106.39C250.598 113.098 253.339 115.382 256.389 115.382C263.248 115.382 277.969 101.97 288.439 89.6233L286.633 88.405C280.924 94.3503 271.954 101.666 266.675 104.868H266.22L298.987 43.4428L298.247 42.2245L287.944 43.139L280.488 57.3141C270.781 75.9096 241.375 107.155 231.313 107.155C228.57 107.155 228.075 105.022 228.95 102.887L255.606 52.8939C259 46.4928 258.792 41.0062 252.694 41.0062C247.056 41.0062 239.673 44.664 234.262 48.9323L233.854 50.4573C237.99 49.239 243.935 49.239 246.24 50.3053L217.344 104.108V104.102ZM211.576 49.6891C215.233 49.6891 216.106 52.1286 215.205 55.4825C212.51 65.5413 196.179 75.2962 171.219 85.9656C184.016 67.2182 201.821 49.6891 211.576 49.6891ZM194.142 118.733C197.496 118.733 200.262 117.515 201.188 116.905L201.311 116.449L181.579 84.2887C208.655 72.5529 224.06 63.4085 227.369 51.0622C229.043 44.8131 225.34 41.0034 219.851 41.0034C206.134 41.0034 191.005 55.9411 177.702 73.1635H176.939L215.897 0L191.506 4.57219L190.915 5.63856L198.537 11.8877L144.279 113.703L145.922 115.531L155.761 112.94L163.33 98.9168C165.46 94.9552 167.894 90.9908 170.519 86.8744L184.427 112.33C186.452 116.139 189.111 118.731 194.142 118.731M140.483 41.0006C114.876 41.0006 92.3526 71.0279 87.2458 90.0792C83.3264 104.71 86.4411 115.838 100.158 115.838C125.306 115.838 148.665 86.1175 154.219 65.3865C157.975 51.3633 155.114 41.0006 140.483 41.0006ZM138.905 44.0478C145.458 44.0478 146.741 51.2113 144.453 59.748C138.98 80.1723 117.132 112.788 101.128 112.788C94.5754 112.788 94.0745 106.691 96.5252 97.5466C102.406 75.5973 123.359 44.0478 138.905 44.0478ZM69.8096 64.7788L67.3617 80.1723H69.9531L86.8772 43.7439H84.2858L71.9902 60.0518H49.4331L69.7589 16.6146H104.51L101.126 41.7631H103.717L116.336 11.7358L106.986 12.4983H46.6279L45.4771 15.0896L56.7824 17.8329L14.994 108.371L1.34493 110.962L0 113.705H38.5611L39.7541 110.962L27.1883 108.371L47.4045 64.7788H69.8096Z" fill="white"/>
</svg>
