<svg width="141" height="41" viewBox="0 0 141 41" fill="none" xmlns="http://www.w3.org/2000/svg">
<rect x="0.5" y="0.5" width="140" height="40" stroke="white"/>
<path d="M36.5903 17.0845L16.1907 5.60888C15.2107 5.046 13.9766 5.7723 13.9766 6.89808V29.8675C13.9766 30.9933 15.1925 31.7196 16.1907 31.1567L36.5903 19.6811C37.5885 19.1182 37.5885 17.6656 36.5903 17.1027V17.0845Z" fill="white"/>
<path d="M51.7231 9.71052C51.7231 10.5639 51.469 11.2358 50.979 11.726C50.4164 12.3252 49.6722 12.6157 48.7648 12.6157C47.8573 12.6157 47.1495 12.3071 46.5325 11.7079C45.9154 11.1087 45.625 10.346 45.625 9.45631C45.625 8.56658 45.9335 7.80396 46.5325 7.20476C47.1314 6.60556 47.8755 6.29688 48.7648 6.29688C49.2004 6.29688 49.6178 6.38766 49.9989 6.55108C50.3982 6.7145 50.7067 6.95055 50.9427 7.22292L50.4164 7.74949C50.0171 7.27739 49.4726 7.02318 48.7648 7.02318C48.1296 7.02318 47.5851 7.24107 47.1132 7.69501C46.6413 8.14896 46.4236 8.73 46.4236 9.43815C46.4236 10.1463 46.6595 10.7273 47.1132 11.1813C47.5851 11.6352 48.1296 11.8531 48.7648 11.8531C49.4363 11.8531 49.9989 11.6352 50.4526 11.1813C50.743 10.8908 50.9064 10.4731 50.9608 9.96472H48.7648V9.23842H51.6868C51.7049 9.40184 51.7231 9.5471 51.7231 9.69236" fill="white"/>
<path d="M56.3725 7.18978H53.6138V9.11449H56.1002V9.8408H53.6138V11.7473H56.3725V12.4918H52.8516V6.44531H56.3725V7.18978Z" fill="white"/>
<path d="M59.6362 12.4918H58.8558V7.18978H57.168V6.44531H61.3241V7.18978H59.6362V12.4918Z" fill="white"/>
<path d="M65.1007 6.46875H64.3203V12.5153H65.1007V6.46875Z" fill="white"/>
<path d="M68.5503 12.4918H67.7699V7.18978H66.082V6.44531H70.2382V7.18978H68.5503V12.4918Z" fill="white"/>
<path d="M74.2279 11.2022C74.6816 11.6561 75.2261 11.874 75.8613 11.874C76.4965 11.874 77.0591 11.6561 77.4947 11.2022C77.9484 10.7482 78.1662 10.1672 78.1662 9.47721C78.1662 8.78722 77.9484 8.20618 77.4947 7.75224C77.041 7.29829 76.4965 7.0804 75.8613 7.0804C75.2261 7.0804 74.6635 7.29829 74.2279 7.75224C73.7742 8.20618 73.5564 8.78722 73.5564 9.47721C73.5564 10.1672 73.7742 10.7664 74.2279 11.2022ZM78.0755 11.7106C77.4766 12.328 76.7506 12.6185 75.8613 12.6185C74.972 12.6185 74.246 12.3098 73.6471 11.7106C73.0482 11.0932 72.7578 10.3488 72.7578 9.47721C72.7578 8.60564 73.0482 7.84302 73.6471 7.24382C74.246 6.62646 74.972 6.33594 75.8613 6.33594C76.7506 6.33594 77.4766 6.64462 78.0755 7.26198C78.6744 7.87934 78.9648 8.6238 78.9648 9.49537C78.9648 10.3669 78.6744 11.1296 78.0755 11.7288" fill="white"/>
<path d="M80.0547 12.4918V6.44531H80.9984L83.9386 11.1481H83.9749L83.9386 9.98606V6.44531H84.719V12.4918H83.9023L80.8351 7.57109H80.7988L80.8351 8.73318V12.4918H80.0547Z" fill="white"/>
<path d="M111.616 29.6153H113.485V17.0321H111.616V29.6153ZM128.531 21.5533L126.371 27.0006H126.299L124.066 21.5533H122.034L125.391 29.1795L123.486 33.4284H125.446L130.618 21.5533H128.531ZM117.877 28.1809C117.26 28.1809 116.407 27.8722 116.407 27.1096C116.407 26.1472 117.478 25.7659 118.404 25.7659C119.22 25.7659 119.62 25.9475 120.11 26.1835C119.965 27.3456 118.966 28.1809 117.877 28.1809ZM118.113 21.281C116.752 21.281 115.337 21.8802 114.756 23.2057L116.426 23.8957C116.789 23.2057 117.442 22.9696 118.132 22.9696C119.093 22.9696 120.092 23.5507 120.11 24.5857V24.7128C119.765 24.513 119.039 24.2225 118.15 24.2225C116.353 24.2225 114.52 25.203 114.52 27.0551C114.52 28.7438 115.99 29.8151 117.642 29.8151C118.912 29.8151 119.602 29.2522 120.037 28.5803H120.11V29.5427H121.925V24.7128C121.925 22.4794 120.255 21.2265 118.113 21.2265M106.516 23.0967H103.848V18.7752H106.516C107.914 18.7752 108.712 19.9373 108.712 20.936C108.712 21.9346 107.914 23.0967 106.516 23.0967ZM106.462 17.0321H101.961V29.6153H103.83V24.8399H106.444C108.531 24.8399 110.563 23.3328 110.563 20.936C110.563 18.5392 108.513 17.0321 106.444 17.0321M81.9242 28.1809C80.6175 28.1809 79.5467 27.0914 79.5467 25.6025C79.5467 24.1136 80.6356 22.9878 81.9242 22.9878C83.2128 22.9878 84.211 24.0954 84.211 25.6025C84.211 27.1096 83.2128 28.1809 81.9242 28.1809ZM84.0839 22.2615H84.0113C83.5939 21.7531 82.7772 21.2991 81.7608 21.2991C79.6193 21.2991 77.6592 23.1875 77.6592 25.6025C77.6592 28.0175 79.6193 29.8695 81.7608 29.8695C82.7772 29.8695 83.5939 29.4156 84.0113 28.889H84.0839V29.5064C84.0839 31.1406 83.2128 32.0303 81.7971 32.0303C80.6538 32.0303 79.9278 31.195 79.6374 30.505L78.004 31.195C78.4759 32.3208 79.7282 33.719 81.7971 33.719C84.0113 33.719 85.8625 32.4116 85.8625 29.2522V21.5715H84.0839V22.2615ZM87.1693 29.6153H89.0568V17.0321H87.1693V29.6153ZM91.8154 25.4572C91.761 23.8049 93.104 22.9515 94.0478 22.9515C94.7919 22.9515 95.4271 23.3328 95.6449 23.8593L91.8154 25.4572ZM97.6594 24.0409C97.2964 23.0786 96.2075 21.3173 93.9933 21.3173C91.7791 21.3173 89.9642 23.0604 89.9642 25.6025C89.9642 27.9993 91.7791 29.8877 94.2111 29.8877C96.1712 29.8877 97.3146 28.6893 97.7865 27.9811L96.3345 27.0006C95.8445 27.7088 95.1911 28.1809 94.2292 28.1809C93.2673 28.1809 92.5958 27.7451 92.1603 26.8735L97.8772 24.513L97.6776 24.0228L97.6594 24.0409ZM52.0508 22.6246V24.4404H56.3885C56.2614 25.4572 55.9166 26.2017 55.3903 26.7283C54.7551 27.3638 53.775 28.0538 52.0327 28.0538C49.3648 28.0538 47.2595 25.893 47.2595 23.2238C47.2595 20.5547 49.3466 18.3939 52.0327 18.3939C53.4846 18.3939 54.5373 18.9568 55.2995 19.7012L56.5881 18.412C55.4992 17.3771 54.0654 16.5781 52.0327 16.5781C48.3666 16.5781 45.2812 19.556 45.2812 23.2238C45.2812 26.8917 48.3666 29.8695 52.0327 29.8695C54.0109 29.8695 55.4992 29.2159 56.6789 27.9993C57.8767 26.8009 58.2578 25.1122 58.2578 23.7504C58.2578 23.3328 58.2215 22.9333 58.1671 22.6246H52.0508ZM63.2125 28.1809C61.9058 28.1809 60.7987 27.1096 60.7987 25.5843C60.7987 24.0591 61.9239 22.9878 63.2125 22.9878C64.5011 22.9878 65.6263 24.0409 65.6263 25.5843C65.6263 27.1277 64.5011 28.1809 63.2125 28.1809ZM63.2125 21.2991C60.8531 21.2991 58.9112 23.0967 58.9112 25.5843C58.9112 28.0719 60.835 29.8695 63.2125 29.8695C65.59 29.8695 67.5138 28.0538 67.5138 25.5843C67.5138 23.1149 65.59 21.2991 63.2125 21.2991ZM72.5774 28.1809C71.2707 28.1809 70.1636 27.1096 70.1636 25.5843C70.1636 24.0591 71.2888 22.9878 72.5774 22.9878C73.866 22.9878 74.9912 24.0409 74.9912 25.5843C74.9912 27.1277 73.866 28.1809 72.5774 28.1809ZM72.5774 21.2991C70.2181 21.2991 68.2761 23.0967 68.2761 25.5843C68.2761 28.0719 70.1999 29.8695 72.5774 29.8695C74.955 29.8695 76.8788 28.0538 76.8788 25.5843C76.8788 23.1149 74.955 21.2991 72.5774 21.2991Z" fill="white"/>
<path d="M32.8326 12.0614L13.4453 31.5938L13.9604 32.1055L33.3477 12.5732L32.8326 12.0614Z" fill="#1D1D1B"/>
<path d="M13.9484 4.65973L13.4336 5.17188L32.8345 24.6907L33.3493 24.1786L13.9484 4.65973Z" fill="#1D1D1B"/>
</svg>
