<svg width="39" height="39" viewBox="0 0 39 39" fill="none" xmlns="http://www.w3.org/2000/svg">
<g clip-path="url(#clip0_3100_7452)">
<path d="M19.21 0C26.6 0 33.0305 4.19984 36.2305 10.3398H36.3096V10.4805C37.6595 13.1004 38.4199 16.0701 38.4199 19.21C38.4199 19.4999 38.4104 19.7899 38.4004 20.0898H38.4102C38.4102 20.1097 38.3899 20.1199 38.3896 20.1396C37.8997 30.2996 29.7901 38.4198 19.2002 38.4199C8.6102 38.4199 -0.00976562 29.8 -0.00976562 19.21C-0.00975943 16.0501 0.760215 13.0703 2.12012 10.4404V10.3398H2.17969C5.38968 4.19985 11.82 1.08402e-05 19.21 0ZM15.5898 14.46V17.46H18.25V27.71H15.5898V30.71H23.9102V27.71H21.25V14.46H15.5898ZM19.7803 6.63965C18.3443 6.63965 17.1797 7.80429 17.1797 9.24023C17.1798 10.6761 18.3444 11.8398 19.7803 11.8398C21.216 11.8397 22.3798 10.676 22.3799 9.24023C22.3799 7.80439 21.2161 6.6398 19.7803 6.63965Z" fill="white"/>
</g>
<defs>
<clipPath id="clip0_3100_7452">
<rect width="38.42" height="38.42" fill="white"/>
</clipPath>
</defs>
</svg>
