<svg width="490" height="56" viewBox="0 0 490 56" fill="none" xmlns="http://www.w3.org/2000/svg">
<path d="M17.61 39.5775C16.65 39.2175 15.42 38.3175 14.1 36.7275C13.98 36.6075 13.86 36.4275 13.68 36.3075C11.94 36.7875 10.35 37.0275 9.27 37.1475C7.38 37.3275 5.64 37.3875 4.2 37.2075C2.64 37.0275 1.47 36.7275 0.809999 36.1275C0.0899994 35.5875 -0.15 34.8675 0.0900001 34.0575C0.51 32.7975 3 31.2075 8.85 27.9975C8.55 27.2775 8.31 26.5575 8.07 25.8075C7.47 23.6175 7.35 21.8775 7.77 20.4675C8.13 19.2675 9.15 18.0975 10.74 17.0775C12 16.2975 13.71 15.5175 15.57 14.9475C19.32 13.8075 23.25 13.5675 25.5 14.2275C26.28 14.4675 26.88 14.8275 27.33 15.3075C27.63 15.7275 27.93 16.4475 27.63 17.4975C26.79 20.1675 20.85 23.5575 11.91 28.3275L11.19 28.7475C12.09 30.6975 13.26 32.5575 14.46 34.2075C16.65 33.5475 18.69 32.6475 20.46 31.5975C20.94 31.2975 21.48 31.4175 21.72 31.8975C21.96 32.3175 21.84 32.8575 21.42 33.0975C19.47 34.2375 17.49 35.1075 15.66 35.6475L16.26 36.3075C17.58 37.6275 18.33 37.8075 18.39 37.7475C18.45 37.7475 18.51 37.6875 18.57 37.5075C18.75 37.0275 19.23 36.7275 19.71 36.9075C20.19 37.0275 20.43 37.5075 20.25 38.0475C19.95 39.0075 19.29 39.5475 18.36 39.5475C18.12 39.5475 17.88 39.5475 17.64 39.4875L17.61 39.5775ZM2.7 35.1075C4.32 35.6475 7.23 35.6475 10.32 35.1675C11.04 35.0475 11.76 34.9275 12.51 34.7475C11.85 33.7875 11.19 32.7975 10.56 31.7175L9.54 29.6475C7.8 30.6075 6.21 31.4775 4.89 32.2575C2.22 33.9375 1.86 34.5075 1.8 34.6275C1.8 34.6875 2.04 34.9275 2.7 35.1075ZM16.08 16.7175C12.51 17.7975 9.96 19.5075 9.48 21.0675C9.06 22.3875 9.42 24.5775 10.38 27.1275C10.62 27.0675 10.8 26.9475 11.04 26.8275C14.43 24.9375 18 23.0775 20.85 21.2475C22.53 20.1675 25.44 18.2175 25.8 16.9575C25.92 16.7175 25.98 16.3575 24.9 15.9975C24.3 15.8175 23.46 15.7575 22.47 15.7575C20.58 15.7575 18.3 16.1175 16.05 16.7175H16.08ZM65.64 42.7875C65.22 42.5475 65.1 42.0075 65.28 41.5275L66.72 38.8575C63.87 38.7375 60.96 38.1375 58.44 37.2375C54.39 35.7375 52.56 33.8475 51.78 32.5275C51.54 32.1075 51.66 31.5675 52.08 31.3275C52.5 31.0275 53.04 31.2075 53.34 31.6275C54.18 33.1275 56.25 34.4775 59.04 35.5575C61.65 36.4575 64.74 36.9975 67.68 37.1175C73.26 27.1875 77.97 18.6675 81.96 11.6475L79.89 12.3675C76.08 13.8075 72.03 15.8175 68.64 18.1275C68.28 18.3675 67.68 18.2475 67.44 17.8275C67.14 17.4675 67.26 16.8675 67.68 16.6275C71.19 14.2575 75.3 12.2175 79.29 10.6875C80.61 10.2075 81.96 9.7275 83.22 9.3675C85.11 6.0975 86.79 3.1275 88.29 0.607499C88.53 0.187499 89.13 0.0674976 89.55 0.307498C89.97 0.547498 90.09 1.1475 89.85 1.5675C88.59 3.6975 87.18 6.0975 85.62 8.8275C87.45 8.4675 89.13 8.2275 90.63 8.2275C94.08 8.2275 96.69 9.1275 98.31 10.8975C99.63 12.3975 100.26 14.5275 99.93 17.0775C99.69 19.3875 98.73 21.8475 97.14 24.3375C95.58 26.8875 93.27 29.3475 90.66 31.4175C87.75 33.7275 84.48 35.5275 80.91 36.8175C77.04 38.1975 72.93 38.9475 68.76 39.0075L66.81 42.5175C66.63 42.8175 66.33 42.9975 66.03 42.9975C65.85 42.9975 65.73 42.9375 65.55 42.8775L65.64 42.7875ZM69.84 37.0575C73.53 36.9375 77.1 36.2175 80.43 35.0475C83.82 33.8475 86.91 32.0775 89.7 29.9775C94.53 26.1075 97.8 21.0675 98.28 16.7775C98.46 14.7675 98.04 13.2075 97.02 12.0675C95.82 10.7475 93.69 9.9975 90.72 9.9975C88.89 9.9975 86.79 10.2975 84.48 10.8975C80.49 17.9175 75.57 26.6775 69.84 37.0275V37.0575ZM99.6 38.7375C98.04 38.0775 97.11 36.6675 97.11 34.9275C97.11 34.0875 97.29 32.7375 98.19 31.0575C98.19 30.9975 98.25 30.9375 98.25 30.8775C98.97 29.4975 100.14 27.9075 101.82 26.1675C104.43 23.5575 107.46 21.5175 109.62 20.9775C110.4 20.7375 111.87 20.5575 112.59 21.6975C112.95 22.2975 113.19 23.3775 112.29 24.9075C110.4 28.1775 104.61 31.9875 99.57 32.2875C99.15 33.2475 98.91 34.1175 98.91 34.9575C98.91 36.0375 99.39 36.6975 100.29 37.1475C101.97 37.8675 105.12 37.4475 108.63 36.0675C112.56 34.5675 116.49 31.8975 119.82 28.7475C120.18 28.4475 120.78 28.4475 121.08 28.8075C121.44 29.1675 121.44 29.7075 121.08 30.0675C117.63 33.3975 113.4 36.1275 109.29 37.7475C106.68 38.7675 104.34 39.3075 102.45 39.3075C101.31 39.3075 100.32 39.1275 99.54 38.7675L99.6 38.7375ZM110.82 22.5675C110.46 22.5675 109.74 22.6875 108.45 23.3475C106.38 24.4875 103.98 26.4375 102.15 28.4775L100.77 30.2175C102.45 29.9775 104.22 29.2575 106.02 28.2075C108.15 26.9475 109.95 25.2975 110.73 23.9775C111.09 23.3175 111.15 22.8375 111.03 22.5375H110.79L110.82 22.5675ZM134.64 36.4875C133.86 35.4675 134.4 33.9375 135 32.5575C135.24 32.0175 135.48 31.4775 135.54 31.0575C135.66 30.5775 135.66 30.3975 135.6 30.3975C135.6 30.3375 135.48 30.2775 135 30.2775C133.32 30.2775 128.16 32.4075 124.05 34.0875C118.47 36.3975 116.49 37.1775 115.53 36.9375C114.69 36.6975 114.33 36.1575 114.27 35.7375C114.09 35.0175 114.45 34.1775 115.53 32.8275C116.43 31.8075 119.16 28.4775 121.35 26.5275C121.71 26.1675 122.25 26.2275 122.61 26.5875C122.97 26.9475 122.91 27.5475 122.55 27.8475C120.66 29.5875 118.02 32.7375 117.15 33.7275C116.49 34.4475 116.25 34.8675 116.13 35.1075C116.37 35.0475 117.03 34.8675 118.5 34.3275C119.88 33.8475 121.59 33.1875 123.33 32.3775C128.97 30.0675 133.08 28.4475 135 28.4475C136.02 28.4475 136.68 28.7475 137.13 29.3475C137.85 30.3675 137.25 31.8375 136.71 33.2175C136.47 33.7575 136.29 34.2375 136.17 34.7175C136.05 35.0775 136.11 35.3175 136.11 35.3175C136.17 35.3775 136.41 35.4975 137.43 35.3775C140.46 34.8975 147.48 31.6875 153.09 29.1375C155.4 28.0575 157.5 27.0675 159.03 26.4075C159.93 26.1075 160.53 25.8075 161.04 25.6875C161.46 25.5675 162.36 25.3275 162.87 25.9875C162.93 26.1075 163.23 26.5275 162.87 27.1275C162.81 27.3075 162.69 27.4875 162.51 27.6675C162.15 28.0275 161.55 28.0275 161.19 27.7275C161.19 27.6675 161.13 27.6075 161.13 27.6075C159.57 28.1475 156.48 29.5575 153.93 30.7575C147.87 33.5475 141.03 36.6975 137.7 37.1175C137.4 37.1775 137.04 37.2375 136.68 37.2375C135.96 37.2375 135.18 37.0575 134.67 36.4575L134.64 36.4875ZM175.38 34.0275C173.94 32.6475 172.65 31.4775 170.79 31.4775C169.29 31.4775 165.21 33.3075 162.03 34.8075C160.14 35.6475 158.4 36.4275 157.02 36.9975C155.19 37.6575 154.05 37.8975 153.39 37.2375C153.03 36.9375 152.91 36.5175 152.91 36.0375C152.91 34.4775 154.86 32.1675 161.13 26.4075C161.49 26.1075 162.03 26.1075 162.39 26.4675C162.69 26.8275 162.69 27.4275 162.33 27.7275C160.2 29.6775 158.04 31.7175 156.51 33.3675C155.31 34.6875 154.89 35.4375 154.77 35.7975C155.07 35.7375 155.67 35.5575 156.78 35.1375C158.04 34.6575 159.63 33.9375 161.25 33.1275C165.18 31.3875 168.87 29.6775 170.82 29.6775C173.43 29.6775 175.11 31.1775 176.7 32.7075C178.44 34.3275 180.03 35.8575 183.06 35.8575C187.05 35.8575 193.53 32.8875 198.24 30.7275C200.91 29.5275 203.01 28.5375 204.3 28.2375C204.84 28.0575 205.32 28.3575 205.44 28.8375C205.56 29.3175 205.26 29.8575 204.78 29.9175C203.64 30.2175 201.51 31.1775 199.02 32.3475C193.89 34.7175 187.47 37.6875 183.03 37.6875C179.28 37.6875 177.21 35.7375 175.41 34.0575L175.38 34.0275ZM201.36 35.8275C200.82 35.5275 200.52 34.9875 200.46 34.3875C200.34 33.3675 200.94 32.1375 202.14 30.6375C202.98 29.6175 203.82 28.8075 203.88 28.8075C204.24 28.4475 204.84 28.5075 205.14 28.8075C205.5 29.1675 205.5 29.7675 205.08 30.1275C203.64 31.4475 202.11 33.3975 202.17 34.1775L202.29 34.2975C202.29 34.2975 203.01 34.4775 204.42 34.1175C205.74 33.7575 207.39 33.0975 209.13 32.1675C212.7 30.3375 216.33 27.8775 219.24 25.2675C219.48 24.9675 219.78 24.6675 220.08 24.4275L220.38 24.2475C220.68 24.1875 221.1 24.2475 221.34 24.4875C221.46 24.6675 221.52 24.8475 221.58 25.0275C221.64 25.3275 221.52 25.6275 221.28 25.8075C219.33 27.4275 218.43 30.3375 217.83 33.1875C222.06 31.4475 227.16 29.7975 232.89 28.3575C233.37 28.2375 233.85 28.5975 233.97 29.0175C234.09 29.4975 233.79 30.0375 233.31 30.1575C228.66 31.2975 222.66 33.0675 217.38 35.2875C217.38 35.4675 217.38 35.5875 217.32 35.7075C217.26 36.1875 217.2 36.6075 217.08 37.0875C215.88 43.5075 210.72 46.4775 207.51 46.5375H207.39C205.77 46.5375 204.6 45.7575 204.3 44.4675C204.18 43.7475 204.24 42.5175 205.44 40.9575C206.46 39.6375 208.05 38.2875 210.15 37.0275C211.71 36.0075 213.6 34.9575 215.79 34.0575C216.09 32.4975 216.39 30.9075 216.87 29.4075C214.68 31.0275 212.28 32.5575 209.85 33.7575C207.96 34.7175 206.28 35.3775 204.9 35.7675C204.06 36.0075 203.34 36.1875 202.71 36.1875C202.08 36.1875 201.63 36.0075 201.27 35.7675L201.36 35.8275ZM211.23 38.6175C206.88 41.3475 205.98 43.3875 206.16 44.1975C206.34 44.7975 207.3 44.7975 207.54 44.7975C209.16 44.7975 210.93 43.7775 212.01 42.8475C213.21 41.8275 214.8 39.8775 215.4 36.7875C215.4 36.6075 215.46 36.4275 215.52 36.3075C213.96 37.0275 212.49 37.8075 211.23 38.6175ZM208.8 23.7375C208.44 23.3775 208.44 22.7775 208.8 22.4775C209.82 21.5175 211.23 20.3475 212.07 19.6875C212.19 19.5675 212.31 19.4475 212.49 19.3875C212.85 19.0275 213.39 19.0875 213.69 19.5075C214.05 19.8675 213.99 20.4675 213.57 20.7675L213.21 21.0675C212.43 21.7275 211.02 22.8075 210.12 23.7375C209.88 23.9175 209.7 24.0375 209.46 24.0375C209.22 24.0375 208.98 23.9175 208.8 23.7375ZM257.28 25.1175C256.26 24.5775 255.66 23.6775 255.72 22.5675C256.08 18.9375 263.94 14.2875 276.9 10.0875C279.51 5.9775 281.73 3.0675 283.44 1.5675C283.8 1.2675 284.4 1.2675 284.76 1.6275C285.06 1.9875 285 2.5875 284.64 2.8875C283.44 4.0275 281.67 6.1575 279.63 9.2475C290.28 6.0975 296.4 5.9175 299.13 6.0975C299.61 6.0975 300.03 6.5175 299.97 7.0575C299.97 7.5375 299.55 7.8975 299.07 7.8975C296.28 7.6575 290.04 7.8975 278.91 11.3475C278.61 11.4675 278.31 11.5275 278.07 11.6475C275.46 15.6375 272.49 20.9175 269.22 27.2475C272.01 27.0075 275.22 26.8275 277.98 26.9475C278.46 26.9475 278.88 27.3675 278.82 27.9075C278.82 28.3875 278.46 28.7475 277.92 28.7475C274.83 28.6875 271.2 28.8675 268.17 29.1675C266.67 32.1375 265.14 35.2875 263.58 38.7375C263.46 39.0375 263.1 39.2175 262.74 39.2175C262.62 39.2175 262.5 39.2175 262.38 39.1575C261.96 38.9175 261.72 38.3775 261.96 37.9575C263.28 34.9875 264.69 32.1975 266.07 29.4375L262.32 29.9775H262.14C261.72 29.9775 261.36 29.6775 261.24 29.2575C261.18 28.7775 261.48 28.2975 261.96 28.1775C262.8 27.9975 264.69 27.7575 267.03 27.5175C269.52 22.6875 271.98 18.1275 274.35 14.1975L275.37 12.5175C261.69 17.1675 257.7 21.1575 257.58 22.7475C257.52 22.8675 257.52 23.1675 258.06 23.4675C258.54 23.7075 258.72 24.2475 258.48 24.6675C258.3 24.9675 258 25.2075 257.64 25.2075C257.52 25.2075 257.4 25.1475 257.28 25.0875V25.1175ZM282.51 38.7375C280.95 38.0775 280.02 36.6675 280.02 34.9275C280.02 34.0875 280.2 32.7375 281.1 31.0575C281.1 30.9975 281.16 30.9375 281.16 30.8775C281.88 29.4975 283.05 27.9075 284.73 26.1675C287.34 23.5575 290.37 21.5175 292.53 20.9775C293.31 20.7375 294.78 20.5575 295.5 21.6975C295.86 22.2975 296.1 23.3775 295.2 24.9075C293.31 28.1775 287.52 31.9875 282.48 32.2875C282.06 33.2475 281.82 34.1175 281.82 34.9575C281.82 36.0375 282.3 36.6975 283.2 37.1475C284.88 37.8675 288.03 37.4475 291.54 36.0675C295.47 34.5675 299.4 31.8975 302.73 28.7475C303.09 28.4475 303.69 28.4475 303.99 28.8075C304.35 29.1675 304.35 29.7075 303.99 30.0675C300.54 33.3975 296.31 36.1275 292.2 37.7475C289.59 38.7675 287.25 39.3075 285.36 39.3075C284.22 39.3075 283.23 39.1275 282.45 38.7675L282.51 38.7375ZM293.73 22.5675C293.37 22.5675 292.65 22.6875 291.36 23.3475C289.29 24.4875 286.89 26.4375 285.06 28.4775L283.68 30.2175C285.36 29.9775 287.13 29.2575 288.93 28.2075C291.06 26.9475 292.86 25.2975 293.64 23.9775C294 23.3175 294.06 22.8375 293.94 22.5375H293.7L293.73 22.5675ZM303.21 40.6875C302.37 40.3275 301.32 39.5475 301.08 37.7175C300.78 35.7675 301.5 31.2975 304.35 24.6375C306.66 19.2975 311.07 10.7775 319.29 0.367499C319.59 -0.052501 320.19 -0.112499 320.61 0.187501C320.97 0.487501 321.03 1.0875 320.73 1.4475C312.63 11.7375 308.19 20.0775 306.03 25.2975C303.12 32.1375 302.64 36.1275 302.82 37.3875C303 38.2275 303.3 38.7075 303.9 39.0075C305.28 39.6675 307.95 38.9475 310.98 37.1775C315.09 34.6275 318.42 32.2275 321.09 30.2175C323.64 28.2675 325.68 26.8275 327.45 25.9275C327.93 25.7475 328.47 25.9275 328.71 26.4075C328.89 26.8275 328.71 27.4275 328.23 27.6075C326.67 28.3875 324.66 29.8575 322.11 31.6575C319.44 33.6675 316.05 36.1275 311.88 38.6775C309.33 40.2375 306.99 41.0475 305.16 41.0475C304.38 41.0475 303.72 40.9275 303.15 40.6275L303.21 40.6875ZM318.06 43.0275C317.88 42.4875 317.76 41.6475 318.3 40.5375C318.72 39.6375 319.5 38.7975 320.61 37.9275C322.68 36.3675 325.02 34.5375 327.63 32.9775C327.45 32.7975 327.39 32.6175 327.21 32.4375C326.73 31.6575 326.13 30.7575 326.13 29.2875C326.13 27.8175 326.73 26.3775 327.81 25.2975C328.89 24.2775 330.36 23.6175 331.92 23.4675C332.4 23.4075 332.88 23.7675 332.88 24.2475C332.94 24.7875 332.52 25.2075 332.04 25.2675C329.73 25.4475 327.93 27.2175 327.93 29.2575C327.93 30.1575 328.29 30.6975 328.77 31.4475L329.13 32.0475C329.13 32.0475 329.43 31.8675 329.49 31.8075C333.6 29.4975 337.17 28.3575 340.2 28.3575C340.74 28.3575 341.16 28.7775 341.16 29.2575C341.16 29.7375 340.74 30.1575 340.2 30.1575C336.93 30.1575 333.24 31.7175 329.85 33.7275C330.03 34.2075 330.09 34.8675 330.09 35.6175C330.09 37.7475 328.95 40.0275 326.82 41.9775C324.87 43.8075 322.65 44.8875 320.94 44.8875C319.56 44.8875 318.39 44.1675 318.03 42.9975L318.06 43.0275ZM321.75 39.3975C319.92 40.7175 319.5 41.8875 319.74 42.4275C319.86 42.8475 320.34 43.0875 320.94 43.0875C322.2 43.0875 324.03 42.1275 325.53 40.6575C327.27 39.0975 328.26 37.2075 328.26 35.6475C328.26 35.3475 328.26 34.9875 328.2 34.7475C325.53 36.4275 323.19 38.2575 321.72 39.3975H321.75ZM337.17 35.6475C336.63 35.3475 336.33 34.8075 336.27 34.2075C336.15 33.1875 336.75 31.9575 337.95 30.4575C338.85 29.4375 339.69 28.6275 339.69 28.6275C340.05 28.2675 340.65 28.3275 340.95 28.6275C341.31 28.9875 341.31 29.5875 340.89 29.9475C339.45 31.2675 337.92 33.2175 338.04 33.9975C338.04 33.9975 338.06 34.0375 338.1 34.1175C338.1 34.1175 338.52 34.2975 340.17 33.8175C341.31 33.4575 342.84 32.8575 344.58 31.9875C347.91 30.4875 351.78 28.3575 354.63 26.7975L355.59 26.2575C356.01 26.0175 356.55 26.1975 356.79 26.6175C357.03 27.0375 356.91 27.5775 356.43 27.8175L355.47 28.3575C352.56 29.9775 348.63 32.1675 345.24 33.7575C341.49 35.4375 339.54 36.0075 338.4 36.0075C337.8 36.0075 337.44 35.8275 337.14 35.6475H337.17ZM344.55 23.4975C344.25 23.1375 344.31 22.5375 344.67 22.2375C345.87 21.2175 346.92 20.1675 347.46 19.3875C347.7 18.9675 348.3 18.8475 348.66 19.1475C349.08 19.3875 349.2 19.9875 348.96 20.3475C348.3 21.3075 347.22 22.4775 345.87 23.6175C345.69 23.7975 345.45 23.8575 345.27 23.8575C345.03 23.8575 344.73 23.7375 344.55 23.4975ZM370.05 34.0275C368.61 32.6475 367.32 31.4775 365.46 31.4775C363.96 31.4775 359.88 33.3075 356.7 34.8075C354.81 35.6475 353.07 36.4275 351.69 36.9975C349.86 37.6575 348.72 37.8975 348.06 37.2375C347.7 36.9375 347.58 36.5175 347.58 36.0375C347.58 34.4775 349.53 32.1675 355.8 26.4075C356.16 26.1075 356.7 26.1075 357.06 26.4675C357.36 26.8275 357.36 27.4275 357 27.7275C354.87 29.6775 352.71 31.7175 351.18 33.3675C349.98 34.6875 349.56 35.4375 349.44 35.7975C349.74 35.7375 350.34 35.5575 351.45 35.1375C352.71 34.6575 354.3 33.9375 355.92 33.1275C359.85 31.3875 363.54 29.6775 365.49 29.6775C368.1 29.6775 369.78 31.1775 371.37 32.7075C373.11 34.3275 374.7 35.8575 377.73 35.8575C381.72 35.8575 388.2 32.8875 392.91 30.7275C395.58 29.5275 397.68 28.5375 398.97 28.2375C399.51 28.0575 399.99 28.3575 400.11 28.8375C400.23 29.3175 399.93 29.8575 399.45 29.9175C398.31 30.2175 396.18 31.1775 393.69 32.3475C388.56 34.7175 382.14 37.6875 377.7 37.6875C373.95 37.6875 371.88 35.7375 370.08 34.0575L370.05 34.0275ZM392.55 55.4475C391.47 55.0875 390.72 54.2475 390.72 53.1975C390.6 51.5775 391.68 50.0475 394.17 48.1275C396.3 46.5075 399.51 44.4975 404.88 41.5275L411.54 38.0175L412.86 36.1275C414.69 33.4575 414.75 32.7975 414.75 32.7375C414.69 32.3775 414.57 32.1975 414.45 32.0775C413.67 31.5375 411.36 31.5375 407.61 32.2575C401.91 33.2775 399.09 33.6975 397.8 32.6775C397.38 32.3175 397.14 31.8975 397.14 31.2975C397.02 29.7975 399.45 27.9075 400.95 26.9475C403.32 25.3875 405.72 24.3375 407.43 24.2775C409.92 24.0975 410.88 24.9975 411.24 25.7175C411.66 26.5575 411.42 27.7275 410.64 28.5675C410.34 28.9275 409.74 28.9875 409.38 28.6275C409.02 28.3275 408.96 27.7275 409.32 27.3675C409.56 27.0675 409.68 26.7075 409.62 26.5275C409.5 26.3475 408.96 26.0475 407.55 26.1075C406.14 26.1675 404.1 27.0075 402.09 28.3575C399.96 29.6775 399 30.9075 398.94 31.2675C399 31.3275 399.42 31.5675 401.19 31.4475C402.63 31.3275 404.7 30.9675 407.31 30.4875C411.9 29.6475 414.33 29.7075 415.59 30.7275C416.13 31.1475 416.49 31.8075 416.55 32.6775C416.55 33.2775 416.31 34.2375 414.99 36.3075C422.07 32.7375 429.75 29.1675 432.36 28.5675C432.9 28.5075 433.38 28.8075 433.5 29.2875C433.56 29.7675 433.26 30.2475 432.78 30.3675C431.16 30.7275 426.84 32.5575 420.75 35.4375L412.77 39.4275C411.27 41.4975 409.08 44.1375 406.11 47.6475C403.44 50.7975 400.71 53.1075 398.19 54.4275C396.63 55.2075 395.16 55.6275 393.96 55.6275C393.42 55.6275 392.94 55.5675 392.58 55.4475H392.55ZM405.81 43.1475C397.53 47.6775 392.43 50.8875 392.55 53.0775C392.55 53.1975 392.55 53.4975 393.09 53.6775C394.53 54.1575 398.85 53.3175 404.76 46.4175C406.26 44.5875 407.67 42.9675 408.87 41.4675C407.79 42.0075 406.68 42.6075 405.78 43.1475H405.81ZM431.85 38.7375C430.29 38.0775 429.36 36.6675 429.36 34.9275C429.36 34.0875 429.54 32.7375 430.44 31.0575C430.44 30.9975 430.5 30.9375 430.5 30.8775C431.22 29.4975 432.39 27.9075 434.07 26.1675C436.68 23.5575 439.71 21.5175 441.87 20.9775C442.65 20.7375 444.12 20.5575 444.84 21.6975C445.2 22.2975 445.44 23.3775 444.54 24.9075C442.65 28.1775 436.86 31.9875 431.82 32.2875C431.4 33.2475 431.16 34.1175 431.16 34.9575C431.16 36.0375 431.64 36.6975 432.54 37.1475C434.22 37.8675 437.37 37.4475 440.88 36.0675C444.81 34.5675 448.74 31.8975 452.07 28.7475C452.43 28.4475 453.03 28.4475 453.33 28.8075C453.69 29.1675 453.69 29.7075 453.33 30.0675C449.88 33.3975 445.65 36.1275 441.54 37.7475C438.93 38.7675 436.59 39.3075 434.7 39.3075C433.56 39.3075 432.57 39.1275 431.79 38.7675L431.85 38.7375ZM443.04 22.5675C442.68 22.5675 441.96 22.6875 440.67 23.3475C438.6 24.4875 436.2 26.4375 434.37 28.4775L432.99 30.2175C434.67 29.9775 436.44 29.2575 438.24 28.2075C440.37 26.9475 442.17 25.2975 442.95 23.9775C443.31 23.3175 443.37 22.8375 443.25 22.5375H443.01L443.04 22.5675ZM450.06 36.7275C449.76 36.5475 449.4 36.1275 449.52 35.5875C449.52 35.5875 449.58 35.5275 449.58 35.4675C449.82 34.7475 450.6 32.9175 451.59 30.6975C452.79 27.9675 454.26 24.5175 455.28 21.9375C455.46 21.4575 456 21.2175 456.42 21.3975C456.9 21.5775 457.14 22.1175 456.96 22.5975L455.46 26.2275C456.72 24.9075 458.01 24.0375 459.21 24.0375C460.29 24.0375 462.06 24.6375 464.46 25.4175C467.49 26.4975 471.18 27.7275 475.41 28.5075C480.3 29.3475 484.56 29.2875 488.37 28.3275C488.79 28.2075 489.33 28.4475 489.45 28.9275C489.57 29.4075 489.27 29.9475 488.79 30.0675C486.48 30.6675 484.14 30.9075 481.83 30.9075C474.93 30.9075 468.27 28.6575 463.86 27.1575C461.79 26.4975 459.99 25.8375 459.21 25.8375C458.31 25.8375 456.78 27.2175 455.16 29.5875C453.66 31.7775 452.31 34.2975 451.65 35.5275C451.53 35.7675 451.47 35.9475 451.35 36.0675C451.35 36.1875 451.29 36.2475 451.29 36.3075C450.99 36.6675 450.69 36.7875 450.45 36.7875C450.33 36.7875 450.21 36.7275 450.09 36.7275H450.06Z" fill="white"/>
</svg>
